<mxfile host="Electron" agent="Mozilla/5.0 (Windows NT 10.0; Win64; x64) AppleWebKit/537.36 (KHTML, like Gecko) draw.io/27.0.5 Chrome/134.0.6998.205 Electron/35.3.0 Safari/537.36" version="27.0.5">
  <diagram name="Seite-1" id="CNHYFlpuM_ymlVPDhtMx">
    <mxGraphModel dx="1426" dy="961" grid="1" gridSize="10" guides="1" tooltips="1" connect="1" arrows="1" fold="1" page="1" pageScale="1" pageWidth="827" pageHeight="1169" math="0" shadow="0">
      <root>
        <mxCell id="0" />
        <mxCell id="1" parent="0" />
        <mxCell id="Qaq5ykR761AZRbHCePPd-21" style="edgeStyle=orthogonalEdgeStyle;rounded=0;orthogonalLoop=1;jettySize=auto;html=1;exitX=0.5;exitY=1;exitDx=0;exitDy=0;entryX=0.5;entryY=0;entryDx=0;entryDy=0;" edge="1" parent="1" source="Qaq5ykR761AZRbHCePPd-1" target="Qaq5ykR761AZRbHCePPd-12">
          <mxGeometry relative="1" as="geometry" />
        </mxCell>
        <mxCell id="Qaq5ykR761AZRbHCePPd-1" value="«component»&lt;br&gt;&lt;b&gt;UserInterface&lt;/b&gt;" style="html=1;dropTarget=0;whiteSpace=wrap;" vertex="1" parent="1">
          <mxGeometry x="440" y="70" width="180" height="90" as="geometry" />
        </mxCell>
        <mxCell id="Qaq5ykR761AZRbHCePPd-2" value="" style="shape=module;jettyWidth=8;jettyHeight=4;" vertex="1" parent="Qaq5ykR761AZRbHCePPd-1">
          <mxGeometry x="1" width="20" height="20" relative="1" as="geometry">
            <mxPoint x="-27" y="7" as="offset" />
          </mxGeometry>
        </mxCell>
        <mxCell id="Qaq5ykR761AZRbHCePPd-22" style="edgeStyle=orthogonalEdgeStyle;rounded=0;orthogonalLoop=1;jettySize=auto;html=1;exitX=0.5;exitY=1;exitDx=0;exitDy=0;" edge="1" parent="1" source="Qaq5ykR761AZRbHCePPd-12" target="Qaq5ykR761AZRbHCePPd-14">
          <mxGeometry relative="1" as="geometry" />
        </mxCell>
        <mxCell id="Qaq5ykR761AZRbHCePPd-12" value="«component»&lt;br&gt;&lt;b&gt;BatteryLogic&lt;/b&gt;" style="html=1;dropTarget=0;whiteSpace=wrap;" vertex="1" parent="1">
          <mxGeometry x="440" y="280" width="180" height="90" as="geometry" />
        </mxCell>
        <mxCell id="Qaq5ykR761AZRbHCePPd-13" value="" style="shape=module;jettyWidth=8;jettyHeight=4;" vertex="1" parent="Qaq5ykR761AZRbHCePPd-12">
          <mxGeometry x="1" width="20" height="20" relative="1" as="geometry">
            <mxPoint x="-27" y="7" as="offset" />
          </mxGeometry>
        </mxCell>
        <mxCell id="Qaq5ykR761AZRbHCePPd-23" style="edgeStyle=orthogonalEdgeStyle;rounded=0;orthogonalLoop=1;jettySize=auto;html=1;exitX=0.5;exitY=1;exitDx=0;exitDy=0;" edge="1" parent="1" source="Qaq5ykR761AZRbHCePPd-14" target="Qaq5ykR761AZRbHCePPd-16">
          <mxGeometry relative="1" as="geometry" />
        </mxCell>
        <mxCell id="Qaq5ykR761AZRbHCePPd-14" value="«component»&lt;br&gt;&lt;b&gt;HardwareAbstraction&lt;/b&gt;&lt;span style=&quot;color: rgba(0, 0, 0, 0); font-family: monospace; font-size: 0px; text-align: start; text-wrap-mode: nowrap;&quot;&gt;%3CmxGraphModel%3E%3Croot%3E%3CmxCell%20id%3D%220%22%2F%3E%3CmxCell%20id%3D%221%22%20parent%3D%220%22%2F%3E%3CmxCell%20id%3D%222%22%20value%3D%22%C2%ABcomponent%C2%BB%26lt%3Bbr%26gt%3B%26lt%3Bb%26gt%3BUserInterface%26lt%3B%2Fb%26gt%3B%22%20style%3D%22html%3D1%3BdropTarget%3D0%3BwhiteSpace%3Dwrap%3B%22%20vertex%3D%221%22%20parent%3D%221%22%3E%3CmxGeometry%20x%3D%22520%22%20y%3D%22190%22%20width%3D%22180%22%20height%3D%2290%22%20as%3D%22geometry%22%2F%3E%3C%2FmxCell%3E%3CmxCell%20id%3D%223%22%20value%3D%22%22%20style%3D%22shape%3Dmodule%3BjettyWidth%3D8%3BjettyHeight%3D4%3B%22%20vertex%3D%221%22%20parent%3D%222%22%3E%3CmxGeometry%20x%3D%221%22%20width%3D%2220%22%20height%3D%2220%22%20relative%3D%221%22%20as%3D%22geometry%22%3E%3CmxPoint%20x%3D%22-27%22%20y%3D%227%22%20as%3D%22offset%22%2F%3E%3C%2FmxGeometry%3E%3C%2FmxCell%3E%3C%2Froot%3E%3C%2FmxGraphModel%3E&lt;/span&gt;" style="html=1;dropTarget=0;whiteSpace=wrap;" vertex="1" parent="1">
          <mxGeometry x="440" y="480" width="180" height="90" as="geometry" />
        </mxCell>
        <mxCell id="Qaq5ykR761AZRbHCePPd-15" value="" style="shape=module;jettyWidth=8;jettyHeight=4;" vertex="1" parent="Qaq5ykR761AZRbHCePPd-14">
          <mxGeometry x="1" width="20" height="20" relative="1" as="geometry">
            <mxPoint x="-27" y="7" as="offset" />
          </mxGeometry>
        </mxCell>
        <mxCell id="Qaq5ykR761AZRbHCePPd-16" value="«component»&lt;br&gt;&lt;b&gt;PersistenceManager&lt;/b&gt;" style="html=1;dropTarget=0;whiteSpace=wrap;" vertex="1" parent="1">
          <mxGeometry x="440" y="680" width="180" height="90" as="geometry" />
        </mxCell>
        <mxCell id="Qaq5ykR761AZRbHCePPd-17" value="" style="shape=module;jettyWidth=8;jettyHeight=4;" vertex="1" parent="Qaq5ykR761AZRbHCePPd-16">
          <mxGeometry x="1" width="20" height="20" relative="1" as="geometry">
            <mxPoint x="-27" y="7" as="offset" />
          </mxGeometry>
        </mxCell>
      </root>
    </mxGraphModel>
  </diagram>
</mxfile>
